<?xml version="1.0" encoding="utf-8" standalone="no"?>
<!DOCTYPE svg PUBLIC "-//W3C//DTD SVG 1.1//EN"
  "http://www.w3.org/Graphics/SVG/1.1/DTD/svg11.dtd">
<svg xmlns:xlink="http://www.w3.org/1999/xlink" width="244.8pt" height="190.8pt" viewBox="0 0 244.8 190.8" xmlns="http://www.w3.org/2000/svg" version="1.1">
 <metadata>
  <rdf:RDF xmlns:dc="http://purl.org/dc/elements/1.1/" xmlns:cc="http://creativecommons.org/ns#" xmlns:rdf="http://www.w3.org/1999/02/22-rdf-syntax-ns#">
   <cc:Work>
    <dc:type rdf:resource="http://purl.org/dc/dcmitype/StillImage"/>
    <dc:date>2026-09-15T12:07:17.453973</dc:date>
    <dc:format>image/svg+xml</dc:format>
    <dc:creator>
     <cc:Agent>
      <dc:title>Matplotlib v3.10.9, https://matplotlib.org/</dc:title>
     </cc:Agent>
    </dc:creator>
   </cc:Work>
  </rdf:RDF>
 </metadata>
 <defs>
  <style type="text/css">*{stroke-linejoin: round; stroke-linecap: butt}</style>
 </defs>
 <g id="figure_1">
  <g id="patch_1">
   <path d="M 0 190.8
L 244.8 190.8
L 244.8 0
L 0 0
z
" style="fill: #ffffff"/>
  </g>
  <g id="axes_1">
   <g id="patch_2">
    <path d="M 64.872 160.272
L 220.32 160.272
L 220.32 36.252
L 64.872 36.252
z
" style="fill: #ffffff"/>
   </g>
   <g id="line2d_1">
    <path d="M 64.872 69.352909
L 220.32 69.352909
" clip-path="url(#pe9652e87e8)" style="fill: none; stroke: #c8ccd0; stroke-width: 0.4; stroke-linecap: square"/>
   </g>
   <g id="line2d_2">
    <path d="M 64.872 117.534727
L 220.32 117.534727
" clip-path="url(#pe9652e87e8)" style="fill: none; stroke: #c8ccd0; stroke-width: 0.4; stroke-linecap: square"/>
   </g>
   <g id="patch_3">
    <path d="M 64.872 41.889273
L 106.050507 41.889273
L 106.050507 48.634727
L 64.872 48.634727
z
" clip-path="url(#pe9652e87e8)" style="fill: #8199b0"/>
   </g>
   <g id="patch_4">
    <path d="M 106.050507 41.889273
L 133.053374 41.889273
L 133.053374 48.634727
L 106.050507 48.634727
z
" clip-path="url(#pe9652e87e8)" style="fill: #cbd4dc"/>
   </g>
   <g id="patch_5">
    <path d="M 133.053374 41.889273
L 144.947082 41.889273
L 144.947082 48.634727
L 133.053374 48.634727
z
" clip-path="url(#pe9652e87e8)" style="fill: #92839b"/>
   </g>
   <g id="patch_6">
    <path d="M 144.947082 41.889273
L 220.32 41.889273
L 220.32 48.634727
L 144.947082 48.634727
z
" clip-path="url(#pe9652e87e8)" style="fill: #9bb09f"/>
   </g>
   <g id="patch_7">
    <path d="M 220.32 41.889273
L 220.32 41.889273
L 220.32 48.634727
L 220.32 48.634727
z
" clip-path="url(#pe9652e87e8)" style="fill: #cbbb9d"/>
   </g>
   <g id="patch_8">
    <path d="M 64.872 51.525636
L 104.001895 51.525636
L 104.001895 58.271091
L 64.872 58.271091
z
" clip-path="url(#pe9652e87e8)" style="fill: #8199b0"/>
   </g>
   <g id="patch_9">
    <path d="M 104.001895 51.525636
L 128.26796 51.525636
L 128.26796 58.271091
L 104.001895 58.271091
z
" clip-path="url(#pe9652e87e8)" style="fill: #cbd4dc"/>
   </g>
   <g id="patch_10">
    <path d="M 128.26796 51.525636
L 134.35176 51.525636
L 134.35176 58.271091
L 128.26796 58.271091
z
" clip-path="url(#pe9652e87e8)" style="fill: #92839b"/>
   </g>
   <g id="patch_11">
    <path d="M 134.35176 51.525636
L 220.32 51.525636
L 220.32 58.271091
L 134.35176 58.271091
z
" clip-path="url(#pe9652e87e8)" style="fill: #9bb09f"/>
   </g>
   <g id="patch_12">
    <path d="M 220.32 51.525636
L 220.32 51.525636
L 220.32 58.271091
L 220.32 58.271091
z
" clip-path="url(#pe9652e87e8)" style="fill: #cbbb9d"/>
   </g>
   <g id="patch_13">
    <path d="M 64.872 61.162
L 85.413913 61.162
L 85.413913 67.907455
L 64.872 67.907455
z
" clip-path="url(#pe9652e87e8)" style="fill: #8199b0"/>
   </g>
   <g id="patch_14">
    <path d="M 85.413913 61.162
L 95.046261 61.162
L 95.046261 67.907455
L 85.413913 67.907455
z
" clip-path="url(#pe9652e87e8)" style="fill: #cbd4dc"/>
   </g>
   <g id="patch_15">
    <path d="M 95.046261 61.162
L 188.389565 61.162
L 188.389565 67.907455
L 95.046261 67.907455
z
" clip-path="url(#pe9652e87e8)" style="fill: #92839b"/>
   </g>
   <g id="patch_16">
    <path d="M 188.389565 61.162
L 220.32 61.162
L 220.32 67.907455
L 188.389565 67.907455
z
" clip-path="url(#pe9652e87e8)" style="fill: #9bb09f"/>
   </g>
   <g id="patch_17">
    <path d="M 220.32 61.162
L 220.32 61.162
L 220.32 67.907455
L 220.32 67.907455
z
" clip-path="url(#pe9652e87e8)" style="fill: #cbbb9d"/>
   </g>
   <g id="patch_18">
    <path d="M 64.872 70.798364
L 81.670345 70.798364
L 81.670345 77.543818
L 64.872 77.543818
z
" clip-path="url(#pe9652e87e8)" style="fill: #8199b0"/>
   </g>
   <g id="patch_19">
    <path d="M 81.670345 70.798364
L 81.881379 70.798364
L 81.881379 77.543818
L 81.670345 77.543818
z
" clip-path="url(#pe9652e87e8)" style="fill: #cbd4dc"/>
   </g>
   <g id="patch_20">
    <path d="M 81.881379 70.798364
L 193.349793 70.798364
L 193.349793 77.543818
L 81.881379 77.543818
z
" clip-path="url(#pe9652e87e8)" style="fill: #92839b"/>
   </g>
   <g id="patch_21">
    <path d="M 193.349793 70.798364
L 220.108966 70.798364
L 220.108966 77.543818
L 193.349793 77.543818
z
" clip-path="url(#pe9652e87e8)" style="fill: #9bb09f"/>
   </g>
   <g id="patch_22">
    <path d="M 220.108966 70.798364
L 220.32 70.798364
L 220.32 77.543818
L 220.108966 77.543818
z
" clip-path="url(#pe9652e87e8)" style="fill: #cbbb9d"/>
   </g>
   <g id="patch_23">
    <path d="M 64.872 80.434727
L 64.872 80.434727
L 64.872 87.180182
L 64.872 87.180182
z
" clip-path="url(#pe9652e87e8)" style="fill: #8199b0"/>
   </g>
   <g id="patch_24">
    <path d="M 64.872 80.434727
L 64.872 80.434727
L 64.872 87.180182
L 64.872 87.180182
z
" clip-path="url(#pe9652e87e8)" style="fill: #cbd4dc"/>
   </g>
   <g id="patch_25">
    <path d="M 64.872 80.434727
L 64.872 80.434727
L 64.872 87.180182
L 64.872 87.180182
z
" clip-path="url(#pe9652e87e8)" style="fill: #92839b"/>
   </g>
   <g id="patch_26">
    <path d="M 64.872 80.434727
L 220.32 80.434727
L 220.32 87.180182
L 64.872 87.180182
z
" clip-path="url(#pe9652e87e8)" style="fill: #9bb09f"/>
   </g>
   <g id="patch_27">
    <path d="M 220.32 80.434727
L 220.32 80.434727
L 220.32 87.180182
L 220.32 87.180182
z
" clip-path="url(#pe9652e87e8)" style="fill: #cbbb9d"/>
   </g>
   <g id="patch_28">
    <path d="M 64.872 90.071091
L 78.808717 90.071091
L 78.808717 96.816545
L 64.872 96.816545
z
" clip-path="url(#pe9652e87e8)" style="fill: #8199b0"/>
   </g>
   <g id="patch_29">
    <path d="M 78.808717 90.071091
L 165.9132 90.071091
L 165.9132 96.816545
L 78.808717 96.816545
z
" clip-path="url(#pe9652e87e8)" style="fill: #cbd4dc"/>
   </g>
   <g id="patch_30">
    <path d="M 165.9132 90.071091
L 206.963979 90.071091
L 206.963979 96.816545
L 165.9132 96.816545
z
" clip-path="url(#pe9652e87e8)" style="fill: #92839b"/>
   </g>
   <g id="patch_31">
    <path d="M 206.963979 90.071091
L 220.32 90.071091
L 220.32 96.816545
L 206.963979 96.816545
z
" clip-path="url(#pe9652e87e8)" style="fill: #9bb09f"/>
   </g>
   <g id="patch_32">
    <path d="M 220.32 90.071091
L 220.32 90.071091
L 220.32 96.816545
L 220.32 96.816545
z
" clip-path="url(#pe9652e87e8)" style="fill: #cbbb9d"/>
   </g>
   <g id="patch_33">
    <path d="M 64.872 99.707455
L 79.003636 99.707455
L 79.003636 106.452909
L 64.872 106.452909
z
" clip-path="url(#pe9652e87e8)" style="fill: #8199b0"/>
   </g>
   <g id="patch_34">
    <path d="M 79.003636 99.707455
L 93.135273 99.707455
L 93.135273 106.452909
L 79.003636 106.452909
z
" clip-path="url(#pe9652e87e8)" style="fill: #cbd4dc"/>
   </g>
   <g id="patch_35">
    <path d="M 93.135273 99.707455
L 220.32 99.707455
L 220.32 106.452909
L 93.135273 106.452909
z
" clip-path="url(#pe9652e87e8)" style="fill: #92839b"/>
   </g>
   <g id="patch_36">
    <path d="M 220.32 99.707455
L 220.32 99.707455
L 220.32 106.452909
L 220.32 106.452909
z
" clip-path="url(#pe9652e87e8)" style="fill: #9bb09f"/>
   </g>
   <g id="patch_37">
    <path d="M 220.32 99.707455
L 220.32 99.707455
L 220.32 106.452909
L 220.32 106.452909
z
" clip-path="url(#pe9652e87e8)" style="fill: #cbbb9d"/>
   </g>
   <g id="patch_38">
    <path d="M 64.872 109.343818
L 83.717408 109.343818
L 83.717408 116.089273
L 64.872 116.089273
z
" clip-path="url(#pe9652e87e8)" style="fill: #8199b0"/>
   </g>
   <g id="patch_39">
    <path d="M 83.717408 109.343818
L 86.48566 109.343818
L 86.48566 116.089273
L 83.717408 116.089273
z
" clip-path="url(#pe9652e87e8)" style="fill: #cbd4dc"/>
   </g>
   <g id="patch_40">
    <path d="M 86.48566 109.343818
L 151.433112 109.343818
L 151.433112 116.089273
L 86.48566 116.089273
z
" clip-path="url(#pe9652e87e8)" style="fill: #92839b"/>
   </g>
   <g id="patch_41">
    <path d="M 151.433112 109.343818
L 220.32 109.343818
L 220.32 116.089273
L 151.433112 116.089273
z
" clip-path="url(#pe9652e87e8)" style="fill: #9bb09f"/>
   </g>
   <g id="patch_42">
    <path d="M 220.32 109.343818
L 220.32 109.343818
L 220.32 116.089273
L 220.32 116.089273
z
" clip-path="url(#pe9652e87e8)" style="fill: #cbbb9d"/>
   </g>
   <g id="patch_43">
    <path d="M 64.872 118.980182
L 108.261432 118.980182
L 108.261432 125.725636
L 64.872 125.725636
z
" clip-path="url(#pe9652e87e8)" style="fill: #8199b0"/>
   </g>
   <g id="patch_44">
    <path d="M 108.261432 118.980182
L 116.42929 118.980182
L 116.42929 125.725636
L 108.261432 125.725636
z
" clip-path="url(#pe9652e87e8)" style="fill: #cbd4dc"/>
   </g>
   <g id="patch_45">
    <path d="M 116.42929 118.980182
L 128.0343 118.980182
L 128.0343 125.725636
L 116.42929 125.725636
z
" clip-path="url(#pe9652e87e8)" style="fill: #92839b"/>
   </g>
   <g id="patch_46">
    <path d="M 128.0343 118.980182
L 218.619903 118.980182
L 218.619903 125.725636
L 128.0343 125.725636
z
" clip-path="url(#pe9652e87e8)" style="fill: #9bb09f"/>
   </g>
   <g id="patch_47">
    <path d="M 218.619903 118.980182
L 220.32 118.980182
L 220.32 125.725636
L 218.619903 125.725636
z
" clip-path="url(#pe9652e87e8)" style="fill: #cbbb9d"/>
   </g>
   <g id="patch_48">
    <path d="M 64.872 128.616545
L 85.267196 128.616545
L 85.267196 135.362
L 64.872 135.362
z
" clip-path="url(#pe9652e87e8)" style="fill: #8199b0"/>
   </g>
   <g id="patch_49">
    <path d="M 85.267196 128.616545
L 144.360969 128.616545
L 144.360969 135.362
L 85.267196 135.362
z
" clip-path="url(#pe9652e87e8)" style="fill: #cbd4dc"/>
   </g>
   <g id="patch_50">
    <path d="M 144.360969 128.616545
L 193.126405 128.616545
L 193.126405 135.362
L 144.360969 135.362
z
" clip-path="url(#pe9652e87e8)" style="fill: #92839b"/>
   </g>
   <g id="patch_51">
    <path d="M 193.126405 128.616545
L 219.927785 128.616545
L 219.927785 135.362
L 193.126405 135.362
z
" clip-path="url(#pe9652e87e8)" style="fill: #9bb09f"/>
   </g>
   <g id="patch_52">
    <path d="M 219.927785 128.616545
L 220.32 128.616545
L 220.32 135.362
L 219.927785 135.362
z
" clip-path="url(#pe9652e87e8)" style="fill: #cbbb9d"/>
   </g>
   <g id="patch_53">
    <path d="M 64.872 138.252909
L 105.675805 138.252909
L 105.675805 144.998364
L 64.872 144.998364
z
" clip-path="url(#pe9652e87e8)" style="fill: #8199b0"/>
   </g>
   <g id="patch_54">
    <path d="M 105.675805 138.252909
L 119.397897 138.252909
L 119.397897 144.998364
L 105.675805 144.998364
z
" clip-path="url(#pe9652e87e8)" style="fill: #cbd4dc"/>
   </g>
   <g id="patch_55">
    <path d="M 119.397897 138.252909
L 135.760845 138.252909
L 135.760845 144.998364
L 119.397897 144.998364
z
" clip-path="url(#pe9652e87e8)" style="fill: #92839b"/>
   </g>
   <g id="patch_56">
    <path d="M 135.760845 138.252909
L 220.32 138.252909
L 220.32 144.998364
L 135.760845 144.998364
z
" clip-path="url(#pe9652e87e8)" style="fill: #9bb09f"/>
   </g>
   <g id="patch_57">
    <path d="M 220.32 138.252909
L 220.32 138.252909
L 220.32 144.998364
L 220.32 144.998364
z
" clip-path="url(#pe9652e87e8)" style="fill: #cbbb9d"/>
   </g>
   <g id="patch_58">
    <path d="M 64.872 147.889273
L 118.859061 147.889273
L 118.859061 154.634727
L 64.872 154.634727
z
" clip-path="url(#pe9652e87e8)" style="fill: #8199b0"/>
   </g>
   <g id="patch_59">
    <path d="M 118.859061 147.889273
L 146.021453 147.889273
L 146.021453 154.634727
L 118.859061 154.634727
z
" clip-path="url(#pe9652e87e8)" style="fill: #cbd4dc"/>
   </g>
   <g id="patch_60">
    <path d="M 146.021453 147.889273
L 172.460156 147.889273
L 172.460156 154.634727
L 146.021453 154.634727
z
" clip-path="url(#pe9652e87e8)" style="fill: #92839b"/>
   </g>
   <g id="patch_61">
    <path d="M 172.460156 147.889273
L 219.40333 147.889273
L 219.40333 154.634727
L 172.460156 154.634727
z
" clip-path="url(#pe9652e87e8)" style="fill: #9bb09f"/>
   </g>
   <g id="patch_62">
    <path d="M 219.40333 147.889273
L 220.32 147.889273
L 220.32 154.634727
L 219.40333 154.634727
z
" clip-path="url(#pe9652e87e8)" style="fill: #cbbb9d"/>
   </g>
   <g id="matplotlib.axis_1">
    <g id="xtick_1">
     <g id="line2d_3">
      <defs>
       <path id="m056cff5b9f" d="M 0 0
L 0 2
" style="stroke: #000000; stroke-width: 0.8"/>
      </defs>
      <g>
       <use xlink:href="#m056cff5b9f" x="64.872" y="160.272" style="stroke: #000000; stroke-width: 0.8"/>
      </g>
     </g>
     <g id="text_1">
      <text style="font-size: 7.8px; font-family: 'Liberation Serif'; text-anchor: middle" x="64.872" y="171.184469" transform="rotate(-0 64.872 171.184469)">0</text>
     </g>
    </g>
    <g id="xtick_2">
     <g id="line2d_4">
      <g>
       <use xlink:href="#m056cff5b9f" x="142.596" y="160.272" style="stroke: #000000; stroke-width: 0.8"/>
      </g>
     </g>
     <g id="text_2">
      <text style="font-size: 7.8px; font-family: 'Liberation Serif'; text-anchor: middle" x="142.596" y="171.184469" transform="rotate(-0 142.596 171.184469)">50</text>
     </g>
    </g>
    <g id="xtick_3">
     <g id="line2d_5">
      <g>
       <use xlink:href="#m056cff5b9f" x="220.32" y="160.272" style="stroke: #000000; stroke-width: 0.8"/>
      </g>
     </g>
     <g id="text_3">
      <text style="font-size: 7.8px; font-family: 'Liberation Serif'; text-anchor: middle" x="220.32" y="171.184469" transform="rotate(-0 220.32 171.184469)">100</text>
     </g>
    </g>
    <g id="text_4">
     <text style="font-size: 8.7px; font-family: 'Liberation Serif'; text-anchor: middle" x="142.596" y="180.970969" transform="rotate(-0 142.596 180.970969)">Share of tool calls (%)</text>
    </g>
   </g>
   <g id="matplotlib.axis_2">
    <g id="ytick_1">
     <g id="line2d_6"/>
     <g id="text_5">
      <text style="font-size: 8.3px; font-family: 'Liberation Serif'; text-anchor: end" x="61.872" y="48.141711" transform="rotate(-0 61.872 48.141711)">Q3.6 35B-A3B</text>
     </g>
    </g>
    <g id="ytick_2">
     <g id="line2d_7"/>
     <g id="text_6">
      <text style="font-size: 8.3px; font-family: 'Liberation Serif'; text-anchor: end" x="61.872" y="57.778075" transform="rotate(-0 61.872 57.778075)">Q3.6 27B</text>
     </g>
    </g>
    <g id="ytick_3">
     <g id="line2d_8"/>
     <g id="text_7">
      <text style="font-size: 8.3px; font-family: 'Liberation Serif'; text-anchor: end" x="61.872" y="67.414438" transform="rotate(-0 61.872 67.414438)">Gemma 12B</text>
     </g>
    </g>
    <g id="ytick_4">
     <g id="line2d_9"/>
     <g id="text_8">
      <text style="font-size: 8.3px; font-family: 'Liberation Serif'; text-anchor: end" x="61.872" y="77.050802" transform="rotate(-0 61.872 77.050802)">Qwen3 1.7B</text>
     </g>
    </g>
    <g id="ytick_5">
     <g id="line2d_10"/>
     <g id="text_9">
      <text style="font-size: 8.3px; font-family: 'Liberation Serif'; text-anchor: end" x="61.872" y="86.687165" transform="rotate(-0 61.872 86.687165)">Qwen3 0.6B</text>
     </g>
    </g>
    <g id="ytick_6">
     <g id="line2d_11"/>
     <g id="text_10">
      <text style="font-size: 8.3px; font-family: 'Liberation Serif'; text-anchor: end" x="61.872" y="96.323529" transform="rotate(-0 61.872 96.323529)">Gemma E2B</text>
     </g>
    </g>
    <g id="ytick_7">
     <g id="line2d_12"/>
     <g id="text_11">
      <text style="font-size: 8.3px; font-family: 'Liberation Serif'; text-anchor: end" x="61.872" y="105.959893" transform="rotate(-0 61.872 105.959893)">Qwen3 4B</text>
     </g>
    </g>
    <g id="ytick_8">
     <g id="line2d_13"/>
     <g id="text_12">
      <text style="font-size: 8.3px; font-family: 'Liberation Serif'; text-anchor: end" x="61.872" y="115.596256" transform="rotate(-0 61.872 115.596256)">Gemma E4B</text>
     </g>
    </g>
    <g id="ytick_9">
     <g id="line2d_14"/>
     <g id="text_13">
      <text style="font-size: 8.3px; font-family: 'Liberation Serif'; text-anchor: end" x="61.872" y="125.23262" transform="rotate(-0 61.872 125.23262)">GPT-5.4 mini</text>
     </g>
    </g>
    <g id="ytick_10">
     <g id="line2d_15"/>
     <g id="text_14">
      <text style="font-size: 8.3px; font-family: 'Liberation Serif'; text-anchor: end" x="61.872" y="134.868984" transform="rotate(-0 61.872 134.868984)">GPT-5 nano</text>
     </g>
    </g>
    <g id="ytick_11">
     <g id="line2d_16"/>
     <g id="text_15">
      <text style="font-size: 8.3px; font-family: 'Liberation Serif'; text-anchor: end" x="61.872" y="144.505347" transform="rotate(-0 61.872 144.505347)">GPT-5.4 nano</text>
     </g>
    </g>
    <g id="ytick_12">
     <g id="line2d_17"/>
     <g id="text_16">
      <text style="font-size: 8.3px; font-family: 'Liberation Serif'; text-anchor: end" x="61.872" y="154.141711" transform="rotate(-0 61.872 154.141711)">Astra</text>
     </g>
    </g>
   </g>
   <g id="patch_63">
    <path d="M 64.872 160.272
L 220.32 160.272
" style="fill: none; stroke: #000000; stroke-width: 0.8; stroke-linejoin: miter; stroke-linecap: square"/>
   </g>
   <g id="text_17">
    <text style="font-size: 8.3px; font-family: 'Liberation Serif'; text-anchor: start" x="224.98344" y="47.257891" transform="rotate(-0 224.98344 47.257891)">11.93</text>
   </g>
   <g id="text_18">
    <text style="font-size: 8.3px; font-family: 'Liberation Serif'; text-anchor: start" x="224.98344" y="56.894254" transform="rotate(-0 224.98344 56.894254)">11.93</text>
   </g>
   <g id="text_19">
    <text style="font-size: 8.3px; font-family: 'Liberation Serif'; text-anchor: start" x="224.98344" y="66.530618" transform="rotate(-0 224.98344 66.530618)">7.75</text>
   </g>
   <g id="text_20">
    <text style="font-size: 8.3px; font-family: 'Liberation Serif'; text-anchor: start" x="224.98344" y="76.166982" transform="rotate(-0 224.98344 76.166982)">9.77</text>
   </g>
   <g id="text_21">
    <text style="font-size: 8.3px; font-family: 'Liberation Serif'; text-anchor: start" x="224.98344" y="85.803345" transform="rotate(-0 224.98344 85.803345)">&lt;.01</text>
   </g>
   <g id="text_22">
    <text style="font-size: 8.3px; font-family: 'Liberation Serif'; text-anchor: start" x="224.98344" y="95.439709" transform="rotate(-0 224.98344 95.439709)">9.23</text>
   </g>
   <g id="text_23">
    <text style="font-size: 8.3px; font-family: 'Liberation Serif'; text-anchor: start" x="224.98344" y="105.076072" transform="rotate(-0 224.98344 105.076072)">0.12</text>
   </g>
   <g id="text_24">
    <text style="font-size: 8.3px; font-family: 'Liberation Serif'; text-anchor: start" x="224.98344" y="114.712436" transform="rotate(-0 224.98344 114.712436)">3.87</text>
   </g>
   <g id="text_25">
    <text style="font-size: 8.3px; font-family: 'Liberation Serif'; text-anchor: start" x="224.98344" y="124.3488" transform="rotate(-0 224.98344 124.3488)">11.16</text>
   </g>
   <g id="text_26">
    <text style="font-size: 8.3px; font-family: 'Liberation Serif'; text-anchor: start" x="224.98344" y="133.985163" transform="rotate(-0 224.98344 133.985163)">3.15</text>
   </g>
   <g id="text_27">
    <text style="font-size: 8.3px; font-family: 'Liberation Serif'; text-anchor: start" x="224.98344" y="143.621527" transform="rotate(-0 224.98344 143.621527)">7.96</text>
   </g>
   <g id="text_28">
    <text style="font-size: 8.3px; font-family: 'Liberation Serif'; text-anchor: start" x="224.98344" y="153.257891" transform="rotate(-0 224.98344 153.257891)">8.55</text>
   </g>
   <g id="text_29">
    <text style="font-size: 7.7px; font-family: 'Liberation Serif'; text-anchor: end" x="243.6372" y="35.625636" transform="rotate(-0 243.6372 35.625636)">Calls/case</text>
   </g>
  </g>
  <g id="legend_1">
   <g id="patch_64">
    <path d="M 50.019797 10.572
L 57.819797 10.572
L 57.819797 5.112
L 50.019797 5.112
z
" style="fill: #8199b0"/>
   </g>
   <g id="text_30">
    <text style="font-size: 7.8px; font-family: 'Liberation Serif'; text-anchor: start" x="64.059797" y="10.572" transform="rotate(-0 64.059797 10.572)">Inspect</text>
   </g>
   <g id="patch_65">
    <path d="M 50.019797 21.593156
L 57.819797 21.593156
L 57.819797 16.133156
L 50.019797 16.133156
z
" style="fill: #cbd4dc"/>
   </g>
   <g id="text_31">
    <text style="font-size: 7.8px; font-family: 'Liberation Serif'; text-anchor: start" x="64.059797" y="21.593156" transform="rotate(-0 64.059797 21.593156)">Quote / budget</text>
   </g>
   <g id="patch_66">
    <path d="M 115.878609 10.572
L 123.678609 10.572
L 123.678609 5.112
L 115.878609 5.112
z
" style="fill: #92839b"/>
   </g>
   <g id="text_32">
    <text style="font-size: 7.8px; font-family: 'Liberation Serif'; text-anchor: start" x="129.918609" y="10.572" transform="rotate(-0 129.918609 10.572)">Forecast</text>
   </g>
   <g id="patch_67">
    <path d="M 115.878609 21.593156
L 123.678609 21.593156
L 123.678609 16.133156
L 115.878609 16.133156
z
" style="fill: #9bb09f"/>
   </g>
   <g id="text_33">
    <text style="font-size: 7.8px; font-family: 'Liberation Serif'; text-anchor: start" x="129.918609" y="21.593156" transform="rotate(-0 129.918609 21.593156)">Classical</text>
   </g>
   <g id="patch_68">
    <path d="M 163.541484 10.572
L 171.341484 10.572
L 171.341484 5.112
L 163.541484 5.112
z
" style="fill: #cbbb9d"/>
   </g>
   <g id="text_34">
    <text style="font-size: 7.8px; font-family: 'Liberation Serif'; text-anchor: start" x="177.581484" y="10.572" transform="rotate(-0 177.581484 10.572)">Replay</text>
   </g>
  </g>
 </g>
 <defs>
  <clipPath id="pe9652e87e8">
   <rect x="64.872" y="36.252" width="155.448" height="124.02"/>
  </clipPath>
 </defs>
</svg>
